<svg xmlns="http://www.w3.org/2000/svg" xmlns:xlink="http://www.w3.org/1999/xlink" version="1.1" x="0px" y="0px" viewBox="0 0 36 45" style="enable-background:new 0 0 36 36;" xml:space="preserve"><g><path d="M20,10.88c1.86,0,3.38-1.51,3.38-3.38S21.86,4.13,20,4.13s-3.38,1.51-3.38,3.38S18.14,10.88,20,10.88z M20,4.88   c1.45,0,2.63,1.18,2.63,2.63s-1.18,2.63-2.63,2.63s-2.63-1.18-2.63-2.63S18.55,4.88,20,4.88z"/><path d="M16.23,9.8c0.17-0.12,0.2-0.36,0.07-0.52c-0.12-0.16-0.36-0.2-0.52-0.07l-4,3c-0.09,0.07-0.15,0.18-0.15,0.3v4.63H9   c-0.11,0-0.21,0.05-0.28,0.13s-0.1,0.19-0.09,0.3l2,14c0.03,0.18,0.18,0.32,0.37,0.32h14c0.19,0,0.34-0.14,0.37-0.32l2-14   c0.02-0.11-0.02-0.22-0.09-0.3s-0.17-0.13-0.28-0.13h-2.63V15.5c0-2.41-1.96-4.38-4.38-4.38s-4.38,1.96-4.38,4.38v1.63h-3.25v-4.44   L16.23,9.8z M24.67,31.13H11.33L9.72,19.88h16.56L24.67,31.13z M16.38,15.5c0-2,1.63-3.63,3.63-3.63s3.63,1.63,3.63,3.63v1.63   h-7.25V15.5z M26.57,17.88l-0.18,1.25H9.61l-0.18-1.25H26.57z"/></g><text x="0" y="51" fill="#000000" font-size="5px" font-weight="bold" font-family="'Helvetica Neue', Helvetica, Arial-Unicode, Arial, Sans-serif">Created by businessicons13</text><text x="0" y="56" fill="#000000" font-size="5px" font-weight="bold" font-family="'Helvetica Neue', Helvetica, Arial-Unicode, Arial, Sans-serif">from the Noun Project</text></svg>