<svg xmlns:dc="http://purl.org/dc/elements/1.1/" xmlns:cc="http://creativecommons.org/ns#" xmlns:rdf="http://www.w3.org/1999/02/22-rdf-syntax-ns#" xmlns:svg="http://www.w3.org/2000/svg" xmlns="http://www.w3.org/2000/svg" xmlns:sodipodi="http://sodipodi.sourceforge.net/DTD/sodipodi-0.dtd" xmlns:inkscape="http://www.inkscape.org/namespaces/inkscape" version="1.1" x="0px" y="0px" viewBox="0 0 100 125"><g transform="translate(0,-952.36218)"><path style="text-indent:0;text-transform:none;direction:ltr;block-progression:tb;baseline-shift:baseline;color:#000000;enable-background:accumulate;" d="M 50 6 C 45.05312 6 41 10.05312 41 15 C 41 19.94688 45.05312 24 50 24 C 54.94688 24 59 19.94688 59 15 C 59 10.05312 54.94688 6 50 6 z M 50 10 C 52.78511 10 55 12.21487 55 15 C 55 17.78513 52.78511 20 50 20 C 47.21489 20 45 17.78513 45 15 C 45 12.21487 47.21489 10 50 10 z M 32 20 C 30.353927 20 29.017322 21.326776 29 22.96875 C 28.999887 22.979504 29 22.989219 29 23 L 22.84375 27.375 A 2.0002 2.0002 0 0 0 22 29 L 22 48 L 20 48 A 2.0001995 2.0001995 0 0 0 19.8125 48 A 2.0001995 2.0001995 0 0 0 18 50 L 18 64 A 2.0001995 2.0001995 0 0 0 20 66 L 28 66 L 28 90.625 C 28 91.2727 28.102431 92.24175 28.875 93.03125 C 29.647569 93.82085 30.642354 94 31.53125 94 L 68.46875 94 C 69.357649 94 70.352429 93.82085 71.125 93.03125 C 71.897571 92.24175 72 91.2727 72 90.625 L 72 66 L 80 66 A 2.0001995 2.0001995 0 0 0 82 64 L 82 50 A 2.0001995 2.0001995 0 0 0 80 48 L 68 48 L 68 38.75 C 68 35.41393 65.774345 32.57986 62.5625 30.78125 C 59.350655 28.98264 55.040046 28 50 28 C 44.960041 28 40.649356 28.98265 37.4375 30.78125 C 34.225644 32.57985 32 35.41391 32 38.75 L 32 48 L 26 48 L 26 30.03125 L 31.6875 25.96875 C 31.793439 25.980072 31.891056 26 32 26 C 33.656854 26 35 24.656854 35 23 C 35 21.343146 33.656854 20 32 20 z M 50 32 C 54.505825 32 58.192056 32.90507 60.59375 34.25 C 62.995444 35.59493 64 37.16135 64 38.75 L 64 48 L 36 48 L 36 38.75 C 36 37.16137 37.004534 35.59493 39.40625 34.25 C 41.807966 32.90507 45.494273 32 50 32 z M 22 52 L 78 52 L 78 62 L 22 62 L 22 52 z M 32 66 L 68 66 L 68 90 L 32 90 L 32 66 z " transform="translate(0,952.36218)" fill="#000000" fill-opacity="1" stroke="none" marker="none" visibility="visible" display="inline" overflow="visible"/></g><text x="0" y="115" fill="#000000" font-size="5px" font-weight="bold" font-family="'Helvetica Neue', Helvetica, Arial-Unicode, Arial, Sans-serif">Created by iconsphere</text><text x="0" y="120" fill="#000000" font-size="5px" font-weight="bold" font-family="'Helvetica Neue', Helvetica, Arial-Unicode, Arial, Sans-serif">from the Noun Project</text></svg>