<svg xmlns="http://www.w3.org/2000/svg" xmlns:xlink="http://www.w3.org/1999/xlink" style="isolation:isolate;" viewBox="0 0 32 40" x="0px" y="0px"><path d=" M 22.35 10.35 L 10.35 22.35 C 10.26 22.45 10.13 22.5 10 22.5 C 9.87 22.5 9.74 22.45 9.65 22.35 C 9.55 22.26 9.5 22.13 9.5 22 C 9.5 21.87 9.55 21.74 9.65 21.65 L 21.65 9.65 C 21.74 9.55 21.87 9.5 22 9.5 C 22.13 9.5 22.26 9.55 22.35 9.65 C 22.45 9.74 22.5 9.87 22.5 10 C 22.5 10.13 22.45 10.26 22.35 10.35 L 22.35 10.35 L 22.35 10.35 Z  M 10.5 13 C 10.5 12.43 10.73 11.89 11.13 11.49 C 11.53 11.09 12.07 10.86 12.64 10.86 C 13.21 10.86 13.75 11.09 14.15 11.49 C 14.55 11.89 14.78 12.43 14.78 13 C 14.78 13.57 14.55 14.11 14.15 14.51 C 13.75 14.91 13.21 15.14 12.64 15.14 C 12.07 15.14 11.53 14.91 11.13 14.51 C 10.73 14.11 10.5 13.57 10.5 13 L 10.5 13 L 10.5 13 Z  M 9.5 13 C 9.5 12.17 9.83 11.37 10.42 10.78 C 11.01 10.19 11.81 9.86 12.64 9.86 C 13.47 9.86 14.27 10.19 14.86 10.78 C 15.45 11.37 15.78 12.17 15.78 13 C 15.78 13.83 15.45 14.63 14.86 15.22 C 14.27 15.81 13.47 16.14 12.64 16.14 C 11.81 16.14 11.01 15.81 10.42 15.22 C 9.83 14.63 9.5 13.83 9.5 13 L 9.5 13 L 9.5 13 Z  M 1.5 16 C 1.5 12.16 3.03 8.47 5.75 5.75 C 8.47 3.03 12.16 1.5 16 1.5 C 19.84 1.5 23.53 3.03 26.25 5.75 C 28.97 8.47 30.5 12.16 30.5 16 L 30.5 16 C 30.5 19.84 28.97 23.53 26.25 26.25 C 23.53 28.97 19.84 30.5 16 30.5 L 16 30.5 C 12.16 30.5 8.47 28.97 5.75 26.25 C 3.03 23.53 1.5 19.84 1.5 16 L 1.5 16 L 1.5 16 L 1.5 16 Z  M 0.5 16 C 0.5 11.89 2.13 7.95 5.04 5.04 C 7.95 2.13 11.89 0.5 16 0.5 C 20.11 0.5 24.05 2.13 26.96 5.04 C 29.87 7.95 31.5 11.89 31.5 16 L 31.5 16 C 31.5 20.11 29.87 24.05 26.96 26.96 C 24.05 29.87 20.11 31.5 16 31.5 L 16 31.5 C 11.89 31.5 7.95 29.87 5.04 26.96 C 2.13 24.05 0.5 20.11 0.5 16 L 0.5 16 L 0.5 16 L 0.5 16 Z  M 16.86 19.36 C 16.86 18.79 17.09 18.25 17.49 17.85 C 17.89 17.45 18.43 17.22 19 17.22 C 19.57 17.22 20.11 17.45 20.51 17.85 C 20.91 18.25 21.14 18.79 21.14 19.36 C 21.14 19.93 20.91 20.47 20.51 20.87 C 20.11 21.27 19.57 21.5 19 21.5 C 18.43 21.5 17.89 21.27 17.49 20.87 C 17.09 20.47 16.86 19.93 16.86 19.36 L 16.86 19.36 Z  M 15.86 19.36 C 15.86 18.53 16.19 17.73 16.78 17.14 C 17.37 16.55 18.17 16.22 19 16.22 C 19.83 16.22 20.63 16.55 21.22 17.14 C 21.81 17.73 22.14 18.53 22.14 19.36 C 22.14 20.19 21.81 20.99 21.22 21.58 C 20.63 22.17 19.83 22.5 19 22.5 C 18.17 22.5 17.37 22.17 16.78 21.58 C 16.19 20.99 15.86 20.19 15.86 19.36 L 15.86 19.36 Z " fill-rule="evenodd" fill="rgb(0,0,0)"/><text x="0" y="47" fill="#000000" font-size="5px" font-weight="bold" font-family="'Helvetica Neue', Helvetica, Arial-Unicode, Arial, Sans-serif">Created by Ramadha Wafiq Musthafa</text><text x="0" y="52" fill="#000000" font-size="5px" font-weight="bold" font-family="'Helvetica Neue', Helvetica, Arial-Unicode, Arial, Sans-serif">from the Noun Project</text></svg>