<svg xmlns="http://www.w3.org/2000/svg" xmlns:xlink="http://www.w3.org/1999/xlink" version="1.1" x="0px" y="0px" viewBox="0 0 100 125" enable-background="new 0 0 100 100" xml:space="preserve"><g><path fill="#000000" d="M82.1,18.3C64.6,0.7,36,0.5,18.1,18.1C0.7,35.6,0.6,64.1,17.9,81.6c8.5,8.6,19.7,13.3,31.8,13.4   c12,0.1,23.4-4.5,31.9-13c0,0,0.2-0.2,0.2-0.2C99.3,64.4,99.4,35.9,82.1,18.3z M77.6,77.5l-0.2,0.2C70,85,60.2,89,49.8,88.9   c-10.4-0.1-20.2-4.2-27.5-11.6c-15-15.2-14.9-39.8,0.3-55.1c15.3-15.1,40-14.9,55.1,0.3C92.7,37.8,92.7,62.4,77.6,77.5z"/><path fill="#000000" d="M71.4,28c-1.1-1.1-3-1.1-4.1,0L27.8,67.5c-1.1,1.1-1.1,3,0,4.1c0.6,0.6,1.3,0.9,2.1,0.9   c0.7,0,1.5-0.3,2.1-0.9l39.5-39.5C72.5,31,72.5,29.1,71.4,28z"/><path fill="#000000" d="M63.3,53.5c-5.4,0-9.8,4.4-9.8,9.8s4.4,9.8,9.8,9.8s9.8-4.4,9.8-9.8S68.7,53.5,63.3,53.5z M63.3,67.3   c-2.2,0-4-1.8-4-4s1.8-4,4-4s4,1.8,4,4S65.5,67.3,63.3,67.3z"/><path fill="#000000" d="M36.7,46.5c5.4,0,9.8-4.4,9.8-9.8c0-5.4-4.4-9.8-9.8-9.8s-9.8,4.4-9.8,9.8C26.9,42.1,31.3,46.5,36.7,46.5z    M36.7,32.7c2.2,0,4,1.8,4,4c0,2.2-1.8,4-4,4c-2.2,0-4-1.8-4-4C32.7,34.5,34.5,32.7,36.7,32.7z"/></g><text x="0" y="115" fill="#000000" font-size="5px" font-weight="bold" font-family="'Helvetica Neue', Helvetica, Arial-Unicode, Arial, Sans-serif">Created by Marek Polakovic</text><text x="0" y="120" fill="#000000" font-size="5px" font-weight="bold" font-family="'Helvetica Neue', Helvetica, Arial-Unicode, Arial, Sans-serif">from the Noun Project</text></svg>