<svg xmlns="http://www.w3.org/2000/svg" data-name="Layer 1" viewBox="0 0 100 125" x="0px" y="0px"><title>Artboard 24</title><path d="M87.5,31.7H77.21v-18A12.22,12.22,0,0,0,65,1.5H14A12.22,12.22,0,0,0,1.75,13.71V55A12.22,12.22,0,0,0,14,67.19h6.13v14a2.5,2.5,0,0,0,4.27,1.77L40.1,67.19h3v6.58A10.76,10.76,0,0,0,53.8,84.52H66.14L79.41,97.77A2.5,2.5,0,0,0,83.68,96V84.52H87.5A10.76,10.76,0,0,0,98.25,73.77V42.45A10.76,10.76,0,0,0,87.5,31.7ZM39.06,62.19a2.5,2.5,0,0,0-1.77.73L25.09,75.11V64.69a2.5,2.5,0,0,0-2.5-2.5H14A7.21,7.21,0,0,1,6.75,55V13.71A7.21,7.21,0,0,1,14,6.5H65a7.21,7.21,0,0,1,7.21,7.21V55A7.21,7.21,0,0,1,65,62.19ZM93.25,73.77a5.75,5.75,0,0,1-5.75,5.75H81.18a2.5,2.5,0,0,0-2.5,2.5v8l-9.74-9.72a2.5,2.5,0,0,0-1.77-.73H53.8A5.75,5.75,0,0,1,48,73.77V67.19H65A12.22,12.22,0,0,0,77.21,55V36.7H87.5a5.75,5.75,0,0,1,5.75,5.75Z"/><path d="M39.79,14.47a11,11,0,0,0-11.3,11,2.5,2.5,0,1,0,5,0,5.94,5.94,0,0,1,1.81-4.29,5.86,5.86,0,0,1,4.35-1.69,6,6,0,0,1,2.47,11.36A9.09,9.09,0,0,0,37,38.9s0,0,0,.06v1.18a2.5,2.5,0,0,0,5,0V39a4.12,4.12,0,0,1,2.35-3.69,11,11,0,0,0-4.54-20.85Z"/><path d="M39.48,48a2.5,2.5,0,0,0-2.5,2.5v.91a2.5,2.5,0,1,0,5,0v-.91A2.5,2.5,0,0,0,39.48,48Z"/><text x="0" y="115" fill="#000000" font-size="5px" font-weight="bold" font-family="'Helvetica Neue', Helvetica, Arial-Unicode, Arial, Sans-serif">Created by Gregor Cresnar</text><text x="0" y="120" fill="#000000" font-size="5px" font-weight="bold" font-family="'Helvetica Neue', Helvetica, Arial-Unicode, Arial, Sans-serif">from the Noun Project</text></svg>