<svg xmlns="http://www.w3.org/2000/svg" data-name="Layer 1" viewBox="0 0 100 125" x="0px" y="0px"><title>guarantee</title><path d="M78.15,11.81V49l-.81-.3a7.81,7.81,0,0,1-1.7-.77,4.57,4.57,0,0,1-.73-.73h0c-.18-.21-.36-.44-.54-.68l-.47-.58V11.81a5.16,5.16,0,0,0-5.15-5.16H26.9a5.16,5.16,0,0,0-5.15,5.16V67.32a5.16,5.16,0,0,0,5.15,5.16H48.45a4.41,4.41,0,0,0,.68,1.42,7,7,0,0,0,3.61,2.25,12.59,12.59,0,0,1,1.38.57H26.9a9.41,9.41,0,0,1-9.4-9.4V11.81a9.41,9.41,0,0,1,9.4-9.4H68.75A9.41,9.41,0,0,1,78.15,11.81Z"/><path d="M27.51,18H68v4.25H27.51Z"/><path d="M27.51,26.37H68v4.25H27.51Z"/><path d="M79.6,51.88c-1.07-1.47-3.5-1.6-4.94-2.65s-2.32-3.33-4-3.9-3.74.76-5.55.76-3.79-1.35-5.55-.79-2.64,2.85-4.05,3.88-3.9,1.19-4.95,2.63-.44,3.8-1,5.51-2.46,3.22-2.46,5,1.87,3.29,2.44,5.05-.07,4.1,1,5.52,3.5,1.61,4.94,2.66,2.32,3.33,4,3.9c1.19.39,2.57-.15,3.91-.5A6.43,6.43,0,0,1,65,78.72c1.75,0,3.78,1.35,5.55.78s2.63-2.84,4-3.87a6.63,6.63,0,0,1,1.48-.75c1.29-.5,2.73-.86,3.47-1.88,1.06-1.45.44-3.81,1-5.52s2.46-3.21,2.46-5-1.87-3.28-2.44-5.05S80.62,53.3,79.6,51.88ZM68.67,73.71a11.87,11.87,0,1,1,7.66-14.94A11.89,11.89,0,0,1,68.67,73.71Z"/><path d="M76.61,76.72l5.1,16.55s-5.5-2-8.61-5.29c-.85,4.5-4.16,9.22-4.16,9.22l-4.1-13.33L60.46,97.14s-3.32-4.82-4-9.3C53.2,91,47.78,93,47.78,93L53.2,76.51a4.94,4.94,0,0,1,1,.51,7.32,7.32,0,0,1,1.21,1.36,7.08,7.08,0,0,0,3.29,2.78A7,7,0,0,0,63,80.88c.3-.09.59-.17.87-.23h0l.26-.06h.06l.24,0a3.62,3.62,0,0,1,.55-.05,7.68,7.68,0,0,1,1.78.4,7,7,0,0,0,4.28.37,7.13,7.13,0,0,0,3.34-2.71,7.89,7.89,0,0,1,1.23-1.34A5.32,5.32,0,0,1,76.61,76.72Z"/><text x="0" y="115" fill="#000000" font-size="5px" font-weight="bold" font-family="'Helvetica Neue', Helvetica, Arial-Unicode, Arial, Sans-serif">Created by Michael Mellon</text><text x="0" y="120" fill="#000000" font-size="5px" font-weight="bold" font-family="'Helvetica Neue', Helvetica, Arial-Unicode, Arial, Sans-serif">from the Noun Project</text></svg>